<?xml version="1.0" encoding="utf-8"?>
<!-- Generator: Adobe Illustrator 19.1.0, SVG Export Plug-In . SVG Version: 6.00 Build 0)  -->
<svg version="1.1" xmlns="http://www.w3.org/2000/svg" xmlns:xlink="http://www.w3.org/1999/xlink" x="0px" y="0px"
	 viewBox="0 0 49.5 29.5" style="enable-background:new 0 0 49.5 29.5;" xml:space="preserve">
<style type="text/css">
	.st0{display:none;opacity:0.49;}
	.st1{display:inline;}
	.st2{fill:#0D6B58;}
	.st3{display:none;}
	.st4{display:inline;fill:#0D6B58;}
</style>
<g id="Capa_1" class="st0">
	<g class="st1">
		<g>
			<path class="st2" d="M34.7,8.6c1.4,2.4,1.1,4.4-0.7,6.2c2.2,2.7,2.2,4.4,0.1,6.7c0.5,1.1,1.2,2.1,1.4,3.2
				c0.4,2.5-1.4,4.5-3.8,4.5c-6.2,0-12.5,0.1-18.7,0c-6.3-0.1-12.3-6.3-12.8-13c-0.7-8.7,5.9-16,14.7-16c9,0,18,0.1,26.9,0.1
				c1,0,2.7,0,3.7,0.1c2.7,0.4,3.9,1.5,3.9,3.9c0,2.6-1.7,4.2-4.5,4.2C41.6,8.6,38.3,8.6,34.7,8.6z M21.9,14.9
				c-0.5-0.8-1-1.4-1.3-2.1c-1.3-2.9-3.6-4.3-6.4-4.1s-4.8,2.1-5.6,5.1c-0.1,0.4-0.6,0.7-0.9,1.1c-0.2-0.5-0.6-0.9-0.5-1.4
				c0.5-3.2,3-5.6,6.3-6.2c3.1-0.5,6.2,0.9,7.9,3.7c0.3,0.5,0.5,1.1,0.8,1.6c0.7,1.2,1.9,1.7,3.2,1.3c1.2-0.4,2-1.5,1.8-2.8
				c-0.1-0.6-0.3-1.3-0.6-1.9c-4.4-8.5-15-10-21.6-3.1c-5.7,6-4,16.2,3.2,20.1c4.1,2.3,8.5,1.8,13.1,1.8c-1.5-2.4-1.2-4.5,0.7-6.3
				C19.8,19.4,19.8,17.2,21.9,14.9z M47.6,5.4c0.5-2.8-0.5-3.7-4.3-3.7c-3.6,0-7.2,0-10.8,0c-3.7,0-7.3,0-10.8,0
				c1.6,1.5,3.2,3.1,4.8,4.6c0.4,0.4,1,0.8,1.6,0.8c5,0.1,10,0,15,0.1C45.1,7.3,47.1,7.1,47.6,5.4z M29.7,22.4c0,0-1.4,0-1.5,0
				c-0.2,0-1.5,0-1.5,0c-1.2,0-1.3,0-2.5,0.1c-1.5,0.1-2.6,1.4-2.5,2.7c0,1.4,1.1,2.6,2.5,2.7c2.3,0.1,4.7,0.1,7,0
				c1.8-0.1,2.9-1.3,2.8-2.8c-0.1-1.5-1.4-2.6-3.1-2.6C30,22.4,30.7,22.4,29.7,22.4z M28,21.1h0.7c1,0,1.4,0,2.4-0.1
				c1.8-0.1,3.2-1.2,3.2-2.7s-1.3-2.7-3.1-2.8c-2.1,0-4.2,0-6.3,0c-1.8,0-3,1.1-3,2.7c0,1.5,1.4,2.8,3.1,2.8
				C25.9,21.1,26.9,21.1,28,21.1z M28,8.7c0.9,1.9,1,3.6-0.2,5.4c1.2,0,2.2,0,3.2,0c0.2,0,0.5,0,0.7-0.1c1.4-0.2,2.4-1.3,2.4-2.6
				s-1-2.6-2.3-2.7C30.6,8.6,29.4,8.7,28,8.7z"/>
		</g>
	</g>
</g>
<g id="Capa_2" class="st3">
	<path class="st4" d="M31.4,21.3h-8.2c-1.4,0-2.5-1.1-2.5-2.5v-0.9c0-1.4,1.1-2.5,2.5-2.5h8.2c1.4,0,2.5,1.1,2.5,2.5v0.9
		C34,20.2,32.8,21.3,31.4,21.3z"/>
	<path class="st4" d="M31.4,14.4h-8.2c-1.4,0-2.5-1.1-2.5-2.5V11c0-1.4,1.1-2.5,2.5-2.5h8.2c1.4,0,2.5,1.1,2.5,2.5v0.9
		C34,13.3,32.8,14.4,31.4,14.4z"/>
	<path class="st4" d="M45.9,7.5H23.2c-1.4,0-2.5-1.1-2.5-2.5V4c0-1.4,1.1-2.5,2.5-2.5h22.6c1.4,0,2.5,1.1,2.5,2.5V5
		C48.4,6.4,47.3,7.5,45.9,7.5z"/>
	<path class="st4" d="M31.4,28.2h-8.2c-1.4,0-2.5-1.1-2.5-2.5v-0.9c0-1.4,1.1-2.5,2.5-2.5h8.2c1.4,0,2.5,1.1,2.5,2.5v0.9
		C34,27.1,32.8,28.2,31.4,28.2z"/>
	<path class="st4" d="M15.7,0.8C11.4-1.2,1,4.4,0.8,14.3c-0.1,10,10.2,15.9,14.6,14C21.7,25.6,21.9,3.7,15.7,0.8z"/>
</g>
<g id="Capa_3">
	<path class="st2" d="M44.6,1.8l-22.9,0l4.8,4.6c0,0,1,0.9,2,0.9c1,0,16.1,0,16.1,0s3.1-0.2,3.1-2.8C47.7,4.5,47.9,2,44.6,1.8z"/>
	<path class="st2" d="M28,8.7c0,0,1.7,2.8-0.2,5.4h3.6c0,0,2.9,0.2,2.9-2.7c0,0,0.3-2.5-2.9-2.7H28z"/>
	<path class="st2" d="M31.2,15.5h-6.8c0,0-2.7,0.1-2.7,2.9c0,0,0,2.1,2.5,2.5h7.1c0,0,3.1-0.2,3-2.6C34.3,18.3,34.5,15.7,31.2,15.5z
		"/>
	<path class="st2" d="M30.1,22.4h-6.1c0,0-2.4,0.1-2.4,2.9c0,0,0,2.1,2.2,2.5h6.4c0,0,2.8-0.2,2.7-2.6
		C32.9,25.2,33.1,22.5,30.1,22.4z"/>
	<path class="st2" d="M27,10.3C24.8,4.4,18.6,0.9,12.4,2C5.8,3.1,1.5,9.1,1.5,14.8C1.6,24.3,9,27.3,13.6,28c1.7,0.3,5.9,0.1,7.7,0
		c0.3,0-1.2-1.3-0.9-3.4c0.2-1.6,0.4-1.3,1.3-2.5c0.1-0.1,0.4-0.3,0.3-0.4c-0.5-0.6-1.4-1.5-1.6-3c-0.1-0.9,0.2-2.4,1.2-3.4
		c0.1-0.1,0.4-0.3,0.3-0.4c-0.8-1.2-1.1-1.8-1.8-3.1c-0.5-0.9-1.2-1.6-2.6-2.5c-0.1,0-0.4-0.2-0.4-0.2c-0.4-0.4-0.3-0.5-0.2-0.7
		c0.1-0.3,0.7-0.6,1.4-0.4c0.5,0.2,1.2,0.8,1.7,1.2c0.8,0.7,1.2,1.3,1.4,1.7c0.1,0.2,0.5,1,0.6,1.2c0.2,0.5,1.4,2.6,3.7,1.7
		C26.9,13.3,27.6,11.8,27,10.3z"/>
</g>
</svg>
